<svg width="195" height="151" xmlns="http://www.w3.org/2000/svg" xml:space="preserve" version="1.1" fill="#f5f3ff" class="fill-purple-50 bg-purple-50 stroke-purple-50">

 <g>
  <title>Layer 1</title>
  <g id="svg_1">
   <path id="svg_2" d="m194.59254,72.22513c-2.506,-22.259 -16.71,-40.936 -34.44,-53.712c-15.69,-11.306 -35.216,-15.794 -54.155,-17.732c-19.796,-2.026 -41.161,-0.441 -59.133,8.685c-7.703,3.911 -14.228,9.919 -18.677,17.31c-2.692,4.472 -8.595,17.543 -3.866,22.3c4.344,9.099 17.821,14.796 25.234,20.608c4.78,3.746 10.212,8.85 1.712,11.723c-6.735,2.277 -15.76,-0.865 -22.556,-1.702c-11.972,-1.473 -26.795,-0.21 -28.555,14.705c-1.783,15.099 12.021,25.996 23.287,33.364c33.657,22.011 78.074,29.229 116.686,18.029c32.669,-9.478 58.423,-38.408 54.463,-73.578zm-138.565,-38.83"/>
  </g>
 </g>
</svg>
