<svg fill="#000000" version="1.1" id="palette" xmlns="http://www.w3.org/2000/svg" xmlns:xlink="http://www.w3.org/1999/xlink" 
	 width="800px" height="800px" viewBox="0 0 46.991 46.99"
	 xml:space="preserve">
<g>
	<path d="M22.082,2.61c-3.74,0-7.598,0.592-11.465,1.76C9.503,4.706,6.115,5.73,4.877,9.082c-1.222,3.312,0.536,6.051,1.819,8.052
		c0.732,1.142,1.563,2.436,1.563,3.337c0,1.522-2.301,4.68-3.824,6.77c-2.771,3.804-5.914,8.113-3.672,12.523
		c2.081,4.092,7.132,4.615,11.299,4.615c18.282,0,34.928-11.048,34.928-23.179C46.99,12.261,37.469,2.61,22.082,2.61z M16.5,34.109
		z"/>
</g>
</svg>

